<svg width="124" height="124" viewBox="0 0 124 124" fill="none" xmlns="http://www.w3.org/2000/svg">
<circle cx="62" cy="62" r="60" stroke="white" stroke-width="3" stroke-linecap="round" stroke-linejoin="round" stroke-dasharray="0.1 10"/>
<path d="M42.4089 59.2295L40.9653 59.1712C40.9822 58.7455 41.4608 48.6842 47.6853 42.6719L48.6893 43.7104C42.876 49.3254 42.4127 59.1313 42.4089 59.2295Z" fill="white"/>
<path d="M84.5637 59.2295L86.0072 59.1712C85.9896 58.7455 85.5117 48.6842 79.2865 42.6719L78.2832 43.7104C84.0965 49.3254 84.5598 59.1313 84.5637 59.2295Z" fill="white"/>
<path d="M81.1307 45.6516C80.6222 46.2146 79.7639 46.0858 79.1809 45.4285C70.4368 35.5344 56.7583 35.5344 48.0103 45.4285C47.4273 46.0858 46.569 46.2146 46.0605 45.6516C45.5527 45.0917 45.6455 43.9758 46.3044 43.2311C56.0097 32.2563 71.1815 32.2563 80.8868 43.2311C81.5457 43.9758 81.6385 45.0917 81.1307 45.6516Z" fill="white"/>
<path d="M86.3167 52.3361C86.5468 52.2701 86.7339 52.3622 86.8613 52.5616L88.9698 55.7906C89.5835 56.76 89.9716 57.8844 89.9716 59.0326V61.9694C89.9716 61.9694 92.8142 64.176 92.8142 67.3858C92.8142 70.5956 90.8452 74.9291 88.357 75.6515C88.2227 75.9476 88.0893 76.1938 87.9957 76.3986C87.7234 76.9984 87.1773 77.342 86.5268 77.2331L86.0405 77.1364V52.8469C86.0405 52.6107 86.0896 52.402 86.3167 52.3361Z" fill="white"/>
<path d="M83.3922 56.3652H83.2833C81.8206 56.3652 80.6348 57.551 80.6348 59.0136V77.3038C80.6348 78.7665 81.8206 79.9522 83.2833 79.9522H83.3922C84.855 79.9522 86.0408 78.7665 86.0408 77.3038V59.0136C86.0408 57.551 84.855 56.3652 83.3922 56.3652Z" fill="white"/>
<path d="M59.4858 87.8488C59.0777 87.8388 49.384 87.5642 40.8124 84.0637C37.1053 82.5497 34.4567 79.333 33.1528 74.761C32.1848 71.3633 32.2937 68.4418 32.2983 68.3184L33.7419 68.3782L33.0201 68.3483L33.7419 68.3774C33.7243 70.414 33.9975 72.4427 34.5534 74.4021C35.7507 78.5706 38.0403 81.3708 41.3585 82.7261C49.6777 86.1238 59.4236 86.4015 59.5211 86.4076L59.4858 87.8488Z" fill="white"/>
<path d="M66.66 85.0308H60.8666C59.8427 85.0308 59.0127 85.8607 59.0127 86.8846V87.1085C59.0127 88.1323 59.8427 88.9623 60.8666 88.9623H66.66C67.6839 88.9623 68.5139 88.1323 68.5139 87.1085V86.8846C68.5139 85.8607 67.6839 85.0308 66.66 85.0308Z" fill="white"/>
<path d="M35.7172 66.5215H32.8355C31.8218 66.5215 31 67.3432 31 68.3569V68.6176C31 69.6313 31.8218 70.453 32.8355 70.453H35.7172C36.731 70.453 37.5528 69.6313 37.5528 68.6176V68.3569C37.5528 67.3432 36.731 66.5215 35.7172 66.5215Z" fill="white"/>
<path d="M40.6557 52.5766C40.5484 52.5446 40.4335 52.5494 40.3293 52.5903C40.225 52.6311 40.1374 52.7057 40.0805 52.8021L38.0187 56.0311C37.3982 56.9995 37.0662 58.1245 37.0614 59.2746V62.2114C37.0614 62.2114 34.1582 64.4134 34.1582 67.6263C34.1582 70.8392 36.0965 75.1696 38.5847 75.8921C38.719 76.1873 38.8371 76.4343 38.9307 76.6391C39.2037 77.2389 39.8028 77.5817 40.4525 77.4736L40.9894 77.3762V53.0874C40.9925 52.8504 40.8828 52.6426 40.6557 52.5766Z" fill="white"/>
<path d="M43.7497 56.6934H43.6408C42.178 56.6934 40.9922 57.8791 40.9922 59.3417V77.632C40.9922 79.0946 42.178 80.2803 43.6408 80.2803H43.7497C45.2124 80.2803 46.3982 79.0946 46.3982 77.632V59.3417C46.3982 57.8791 45.2124 56.6934 43.7497 56.6934Z" fill="white"/>
</svg>
